<svg id="logo-tether" width="89" height="20" viewBox="0 0 89 20" fill="none" xmlns="http://www.w3.org/2000/svg">
  <path
    d="M5.07916 0H18.5122C18.8327 0 19.1288 0.169168 19.2887 0.443614L23.2023 7.16291C23.4052 7.51137 23.3449 7.95119 23.0554 8.23375L12.2832 18.7486C11.9342 19.0892 11.3729 19.0892 11.0239 18.7486L0.266206 8.24796C-0.0300083 7.95882 -0.0854761 7.50617 0.132345 7.15556L4.31567 0.422056C4.47859 0.159818 4.7677 0 5.07916 0ZM16.7778 2.99993V4.88527H12.9512V6.19243C15.6387 6.33212 17.6551 6.90584 17.67 7.59351L17.6699 9.02708C17.655 9.71475 15.6387 10.2885 12.9512 10.4282V13.6361H10.4103V10.4282C7.72286 10.2885 5.70653 9.71475 5.69156 9.02708L5.69165 7.59351C5.70661 6.90584 7.72286 6.33212 10.4103 6.19243V4.88527H6.58382V2.99993H16.7778ZM11.6808 9.44327C14.5488 9.44327 16.946 8.95815 17.5327 8.31029C17.0352 7.76091 15.2357 7.32854 12.9512 7.2098V8.57839C12.5418 8.59967 12.1167 8.61088 11.6808 8.61088C11.2449 8.61088 10.8198 8.59967 10.4103 8.57839V7.2098C8.12585 7.32854 6.32638 7.76091 5.82889 8.3103C6.41556 8.95815 8.81275 9.44327 11.6808 9.44327Z"
    fill="var(--primary-color-icon, var(--accent-color-icon, white))"
    fill-rule="evenodd"
    clip-rule="evenodd"
  />
  <path
    d="M28.4463 3.64608L31.5515 3.30106V6.27688H34.247V8.86455H31.5299V12.8754C31.5299 13.8243 31.9324 14.2987 32.7375 14.2987C33.255 14.2987 33.6863 14.2124 34.0313 14.0399L34.7429 16.6276C34.0385 16.9007 33.291 17.0588 32.5003 17.102C31.2496 17.1595 30.2576 16.8648 29.5245 16.2178C28.8057 15.5566 28.4463 14.4424 28.4463 12.8754V8.86455H26.5486V6.27688H28.4463V3.64608Z"
    fill="var(--primary-color-icon, var(--accent-color-icon, white))"
  />
  <path
    d="M45.8688 12.552H38.041C38.1273 13.0983 38.422 13.5511 38.9252 13.9105C39.4283 14.2555 40.0968 14.428 40.9306 14.428C42.1238 14.428 43.0439 14.1477 43.6908 13.5871L45.4375 15.5278C44.3736 16.5772 42.8498 17.102 40.8659 17.102C38.9683 17.102 37.4948 16.5916 36.4453 15.5709C35.4102 14.5502 34.8927 13.1701 34.8927 11.4307C34.8927 9.7918 35.4031 8.46921 36.4237 7.4629C37.4444 6.4422 38.8173 5.93186 40.5425 5.93186C42.4257 5.93186 43.8633 6.5069 44.8552 7.65697C45.8616 8.80705 46.1994 10.4387 45.8688 12.552ZM38.041 10.2878H43.087C43.0582 9.74148 42.7995 9.32458 42.3107 9.03706C41.8219 8.73517 41.2325 8.58422 40.5425 8.58422C39.9243 8.58422 39.3924 8.73517 38.9467 9.03706C38.5011 9.33896 38.1992 9.75586 38.041 10.2878Z"
    fill="var(--primary-color-icon, var(--accent-color-icon, white))"
  />
  <path
    d="M48.4576 3.64608L51.5628 3.30106V6.27688H54.2583V8.86455H51.5412V12.8754C51.5412 13.8243 51.9437 14.2987 52.7488 14.2987C53.2663 14.2987 53.6976 14.2124 54.0426 14.0399L54.7542 16.6276C54.0498 16.9007 53.3023 17.0588 52.5116 17.102C51.2609 17.1595 50.2689 16.8648 49.5358 16.2178C48.817 15.5566 48.4576 14.4424 48.4576 12.8754V8.86455H46.5599V6.27688H48.4576V3.64608Z"
    fill="var(--primary-color-icon, var(--accent-color-icon, white))"
  />
  <path
    d="M55.9186 1.77002H59.0454V7.52759C59.8073 6.53565 60.8855 6.03968 62.2799 6.03968C65.112 6.03968 66.528 7.74323 66.528 11.1503V16.8648H63.4228V11.1719C63.4228 10.4387 63.2359 9.87087 62.8622 9.46834C62.5028 9.06581 62.014 8.86455 61.3958 8.86455C60.7202 8.86455 60.1523 9.09457 59.6923 9.5546C59.2466 10.0146 59.0238 10.6544 59.0238 11.4738V16.8648H55.9186V1.77002Z"
    fill="var(--primary-color-icon, var(--accent-color-icon, white))"
  />
  <path
    d="M78.7064 12.552H70.8787C70.965 13.0983 71.2597 13.5511 71.7629 13.9105C72.266 14.2555 72.9345 14.428 73.7683 14.428C74.9615 14.428 75.8816 14.1477 76.5285 13.5871L78.2752 15.5278C77.2113 16.5772 75.6875 17.102 73.7036 17.102C71.806 17.102 70.3325 16.5916 69.283 15.5709C68.2479 14.5502 67.7304 13.1701 67.7304 11.4307C67.7304 9.7918 68.2408 8.46921 69.2614 7.4629C70.2821 6.4422 71.655 5.93186 73.3802 5.93186C75.2634 5.93186 76.701 6.5069 77.6929 7.65697C78.6993 8.80705 79.0371 10.4387 78.7064 12.552ZM70.8787 10.2878H75.9247C75.896 9.74148 75.6372 9.32458 75.1484 9.03706C74.6596 8.73517 74.0702 8.58422 73.3802 8.58422C72.762 8.58422 72.2301 8.73517 71.7844 9.03706C71.3388 9.33896 71.0369 9.75586 70.8787 10.2878Z"
    fill="var(--primary-color-icon, var(--accent-color-icon, white))"
  />
  <path
    d="M79.9943 6.23375H82.8838L83.121 7.3982C83.7967 6.44939 84.7455 5.97499 85.9675 5.97499C86.9738 5.97499 87.8435 6.29844 88.5767 6.94536L87.2829 9.40365C86.7797 9.04425 86.2119 8.86455 85.5793 8.86455C84.8749 8.86455 84.2855 9.08738 83.8111 9.53303C83.3367 9.96431 83.0995 10.5609 83.0995 11.3228V16.8648H79.9943V6.23375Z"
    fill="var(--primary-color-icon, var(--accent-color-icon, white))"
  />
</svg>
